# xmcd CD database file
#
# Track frame offsets:
#	150
#	33988
#	71014
#	98162
#	133606
#	163032
#	207570
#	238335
#
# Disc length: 4128 seconds
#
# Revision: 0
# Processed by: cddbd v1.5.2PL0 Copyright (c) Steve Scherf et al.
# Submitted via: CDex 1.70beta2
#
DISCID=73101e08
DTITLE=Grand Central - Politics
DYEAR=2011
DGENRE=Jazz
TTITLE0=Politics
TTITLE1=Herbie
TTITLE2=C for Miles
TTITLE3=M is for minor
TTITLE4=Weirdo
TTITLE5=L
TTITLE6=15 and 9
TTITLE7=Go on home - Hiram
EXTD=YEAR: 2011
EXTT0=
EXTT1=
EXTT2=
EXTT3=
EXTT4=
EXTT5=
EXTT6=
EXTT7=
PLAYORDER=
